<?xml version="1.0" encoding="UTF-8" standalone="no"?>
<!DOCTYPE svg PUBLIC "-//W3C//DTD SVG 1.1//EN" "http://www.w3.org/Graphics/SVG/1.1/DTD/svg11.dtd">
<svg version="1.1" xmlns="http://www.w3.org/2000/svg" xmlns:xlink="http://www.w3.org/1999/xlink" preserveAspectRatio="xMidYMid meet" viewBox="0 0 640 640" width="640" height="640"><defs><path d="M320 497.75C339.63 497.75 355.5 513.75 355.5 533.25C355.5 552.88 339.5 568.75 320 568.75C300.38 568.75 284.5 552.75 284.5 533.25C284.5 513.63 300.5 497.75 320 497.75C320 495.38 320 483.55 320 462.25C320 440.95 320 429.12 320 426.75C261.13 426.75 213.38 474.5 213.38 533.38C213.38 592.25 261.13 640 320 640C378.88 640 426.63 592.25 426.63 533.38C426.63 474.5 378.88 426.75 320 426.75C320 429.12 320 440.95 320 462.25C320 483.55 320 495.38 320 497.75Z" id="b3Hdfrr7u3"></path><path d="M142.25 35.5C142.25 56.8 142.25 68.63 142.25 71C161.88 71 177.75 87 177.75 106.5C177.75 126.12 161.75 142 142.25 142C122.62 142 106.75 126 106.75 106.5C106.75 86.87 122.75 71 142.25 71C142.25 68.63 142.25 56.8 142.25 35.5C142.25 14.2 142.25 2.37 142.25 0C83.25 0 35.63 47.75 35.5 106.63C35.5 165.5 83.25 213.25 142.13 213.25C201 213.25 248.75 165.5 248.75 106.63C248.75 47.75 201 0 142.13 0C142.13 2.37 142.13 14.2 142.13 35.5L142.25 35.5Z" id="bnKom2IK3"></path><path d="M497.75 71C517.38 71 533.25 87 533.25 106.5C533.25 126.12 517.25 142 497.75 142C478.13 142 462.25 126 462.25 106.5C462.25 86.87 478.25 71 497.75 71C497.75 68.63 497.75 56.8 497.75 35.5C497.75 14.2 497.75 2.37 497.75 0C438.87 0 391.13 47.75 391.13 106.63C391.13 165.5 438.87 213.25 497.75 213.25C556.63 213.25 604.38 165.5 604.38 106.63C604.38 47.75 556.63 0 497.75 0C497.75 2.37 497.75 14.2 497.75 35.5C497.75 56.8 497.75 68.63 497.75 71Z" id="c85LQ85xQ8"></path><path d="M106.69 248.88C106.69 307.75 154.44 355.5 213.31 355.5C234.65 355.5 405.35 355.5 426.69 355.5C485.56 355.5 533.31 307.75 533.31 248.87C533.31 241.76 533.31 184.86 533.31 177.75C533.31 158.12 517.44 142.25 497.81 142.25C478.19 142.25 462.31 158.12 462.31 177.75C462.31 184.86 462.31 241.76 462.31 248.87C462.31 268.5 446.31 284.37 426.81 284.37C405.48 284.37 234.78 284.37 213.44 284.37C193.81 284.37 177.94 268.37 177.94 248.87C177.94 241.76 177.94 184.86 177.94 177.75C177.94 158.12 162.06 142.25 142.44 142.25C122.81 142.25 106.69 158.13 106.69 177.75C106.69 191.98 106.69 241.76 106.69 248.88Z" id="af16ju5gF"></path><path d="M284.5 320C284.5 405.35 284.5 452.77 284.5 462.25C284.5 481.88 300.38 497.75 320 497.75C339.63 497.75 355.5 481.88 355.5 462.25C355.5 448.03 355.5 334.23 355.5 320C355.5 300.38 339.63 284.5 320 284.5C300.38 284.5 284.5 300.38 284.5 320" id="buYmUY8R6"></path></defs><g><g><g><use xlink:href="#b3Hdfrr7u3" opacity="1" fill="#606060" fill-opacity="1"></use><g><use xlink:href="#b3Hdfrr7u3" opacity="1" fill-opacity="0" stroke="#000000" stroke-width="1" stroke-opacity="0"></use></g></g><g><use xlink:href="#bnKom2IK3" opacity="1" fill="#606060" fill-opacity="1"></use><g><use xlink:href="#bnKom2IK3" opacity="1" fill-opacity="0" stroke="#000000" stroke-width="1" stroke-opacity="0"></use></g></g><g><use xlink:href="#c85LQ85xQ8" opacity="1" fill="#606060" fill-opacity="1"></use><g><use xlink:href="#c85LQ85xQ8" opacity="1" fill-opacity="0" stroke="#000000" stroke-width="1" stroke-opacity="0"></use></g></g><g><use xlink:href="#af16ju5gF" opacity="1" fill="#606060" fill-opacity="1"></use><g><use xlink:href="#af16ju5gF" opacity="1" fill-opacity="0" stroke="#000000" stroke-width="1" stroke-opacity="0"></use></g></g><g><use xlink:href="#buYmUY8R6" opacity="1" fill="#606060" fill-opacity="1"></use><g><use xlink:href="#buYmUY8R6" opacity="1" fill-opacity="0" stroke="#000000" stroke-width="1" stroke-opacity="0"></use></g></g></g></g></svg>